<?xml version="1.0" ?>
<mxGraphModel dx="1224" dy="1224" grid="1" gridSize="10" guides="1" tooltips="1" connect="1" arrows="1" fold="1" page="1" pageScale="1" pageWidth="827" pageHeight="1169" math="0" shadow="0">
  <root>
    <mxCell id="0"/>
    <mxCell id="1" parent="0"/>
    <mxCell id="n0" value="Define Mdm Settings" style="rounded=1;whiteSpace=wrap;html=1;fillColor=#dae8fc;strokeColor=#6c8ebf;fontSize=12;" vertex="1" parent="1" link="Define MDM Settings.html">
      <mxGeometry x="20" y="20" width="160" height="60" as="geometry"/>
    </mxCell>
    <mxCell id="n1" value="Create Profiles" style="rounded=1;whiteSpace=wrap;html=1;fillColor=#dae8fc;strokeColor=#6c8ebf;fontSize=12;" vertex="1" parent="1" link="Create Profiles.html">
      <mxGeometry x="220" y="20" width="160" height="60" as="geometry"/>
    </mxCell>
    <mxCell id="n2" value="Scope To Devices" style="rounded=1;whiteSpace=wrap;html=1;fillColor=#dae8fc;strokeColor=#6c8ebf;fontSize=12;" vertex="1" parent="1" link="Scope to Devices.html">
      <mxGeometry x="420" y="20" width="160" height="60" as="geometry"/>
    </mxCell>
    <mxCell id="n3" value="Deploy Via Jamf" style="rounded=1;whiteSpace=wrap;html=1;fillColor=#dae8fc;strokeColor=#6c8ebf;fontSize=12;" vertex="1" parent="1" link="Deploy via JAMF.html">
      <mxGeometry x="20" y="140" width="160" height="60" as="geometry"/>
    </mxCell>
    <mxCell id="n4" value="Apple Business Manager" style="rounded=1;whiteSpace=wrap;html=1;fillColor=#dae8fc;strokeColor=#6c8ebf;fontSize=12;" vertex="1" parent="1" link="Apple Business Manager.html">
      <mxGeometry x="220" y="140" width="160" height="60" as="geometry"/>
    </mxCell>
    <mxCell id="n5" value="Dep Config" style="rounded=1;whiteSpace=wrap;html=1;fillColor=#dae8fc;strokeColor=#6c8ebf;fontSize=12;" vertex="1" parent="1" link="DEP Config.html">
      <mxGeometry x="420" y="140" width="160" height="60" as="geometry"/>
    </mxCell>
    <mxCell id="n6" value="Vpp Assignment" style="rounded=1;whiteSpace=wrap;html=1;fillColor=#dae8fc;strokeColor=#6c8ebf;fontSize=12;" vertex="1" parent="1" link="VPP Assignment.html">
      <mxGeometry x="20" y="260" width="160" height="60" as="geometry"/>
    </mxCell>
    <mxCell id="n7" value="Device Powers On" style="rounded=1;whiteSpace=wrap;html=1;fillColor=#dae8fc;strokeColor=#6c8ebf;fontSize=12;" vertex="1" parent="1" link="Device Powers On.html">
      <mxGeometry x="220" y="260" width="160" height="60" as="geometry"/>
    </mxCell>
    <mxCell id="n8" value="Auto-Enrollment" style="rounded=1;whiteSpace=wrap;html=1;fillColor=#dae8fc;strokeColor=#6c8ebf;fontSize=12;" vertex="1" parent="1" link="Auto-Enrollment.html">
      <mxGeometry x="420" y="260" width="160" height="60" as="geometry"/>
    </mxCell>
    <mxCell id="n9" value="Apply Jamf Profiles" style="rounded=1;whiteSpace=wrap;html=1;fillColor=#dae8fc;strokeColor=#6c8ebf;fontSize=12;" vertex="1" parent="1" link="Apply JAMF Profiles.html">
      <mxGeometry x="20" y="380" width="160" height="60" as="geometry"/>
    </mxCell>
    <mxCell id="n10" value="Ready-To-Use Ipad" style="rounded=1;whiteSpace=wrap;html=1;fillColor=#dae8fc;strokeColor=#6c8ebf;fontSize=12;" vertex="1" parent="1" link="Ready-to-use iPad.html">
      <mxGeometry x="220" y="380" width="160" height="60" as="geometry"/>
    </mxCell>
  </root>
</mxGraphModel>
